<?xml version="1.0" encoding="utf-8"?>
<!-- Generator: Adobe Illustrator 23.1.0, SVG Export Plug-In . SVG Version: 6.00 Build 0)  -->
<svg version="1.1" id="Camada_1" xmlns="http://www.w3.org/2000/svg" xmlns:xlink="http://www.w3.org/1999/xlink" x="0px" y="0px"
	 viewBox="0 0 748 110" style="enable-background:new 0 0 748 110;" xml:space="preserve">
<style type="text/css">
	.st0{fill:#E4A014;}
	.st1{fill:#3B66AD;}
	.st2{fill:#FFFFFF;}
	.st3{fill:#D8D8D8;}
</style>
<g>
	<g>
		<path class="st2" d="M239.4,108.2h-60.9V6h23v83.5h37.8V108.2z"/>
		<path class="st2" d="M262.3,23.7c-3.8,0-6.9-1.1-9.3-3.4c-2.4-2.3-3.6-5-3.6-8.3c0-3.4,1.2-6.1,3.6-8.3c2.4-2.1,5.5-3.2,9.3-3.2
			c3.8,0,7,1.1,9.4,3.2c2.4,2.1,3.6,4.9,3.6,8.3c0,3.4-1.2,6.2-3.6,8.4C269.3,22.6,266.2,23.7,262.3,23.7z M273.4,108.2h-22.5v-73
			h22.5V108.2z"/>
		<path class="st2" d="M361.9,35.2l-27.2,73h-25.7l-25.9-73h24.1l12.7,45c1.4,5.1,2.3,9.4,2.5,13h0.3c0.3-3.4,1.2-7.6,2.6-12.5
			l13-45.4H361.9z"/>
		<path class="st2" d="M435.6,78.1H388c0.8,10.6,7.4,15.9,20,15.9c8,0,15.1-1.9,21.2-5.7v16.2c-6.7,3.6-15.5,5.4-26.3,5.4
			c-11.8,0-20.9-3.3-27.4-9.8c-6.5-6.5-9.8-15.6-9.8-27.3c0-12.1,3.5-21.7,10.5-28.8c7-7.1,15.7-10.6,25.9-10.6
			c10.6,0,18.9,3.2,24.7,9.5c5.8,6.3,8.7,14.9,8.7,25.7V78.1z M414.8,64.3c0-10.5-4.2-15.7-12.7-15.7c-3.6,0-6.7,1.5-9.4,4.5
			c-2.6,3-4.2,6.7-4.8,11.2H414.8z"/>
		<path class="st2" d="M524.5,104.6c-7.5,3.6-17.2,5.4-29.2,5.4c-15.7,0-28-4.6-37-13.8c-9-9.2-13.5-21.5-13.5-36.8
			c0-16.3,5-29.6,15.1-39.8c10.1-10.2,23.2-15.3,39.3-15.3c10,0,18.4,1.3,25.2,3.8v22.2c-6.8-4.1-14.6-6.1-23.4-6.1
			c-9.6,0-17.3,3-23.2,9.1c-5.9,6-8.8,14.2-8.8,24.5c0,9.9,2.8,17.8,8.3,23.6c5.6,5.9,13,8.8,22.4,8.8c9,0,17.2-2.2,24.7-6.6V104.6z
			"/>
		<path class="st2" d="M587.7,55.6c-2.7-1.5-5.9-2.2-9.5-2.2c-4.9,0-8.7,1.8-11.5,5.4c-2.8,3.6-4.1,8.5-4.1,14.6v34.8h-22.5v-73
			h22.5v13.5h0.3c3.6-9.9,10-14.8,19.2-14.8c2.4,0,4.2,0.3,5.6,0.9V55.6z"/>
		<path class="st2" d="M663.2,78.1h-47.6c0.8,10.6,7.4,15.9,20,15.9c8,0,15.1-1.9,21.2-5.7v16.2c-6.7,3.6-15.5,5.4-26.3,5.4
			c-11.8,0-20.9-3.3-27.4-9.8c-6.5-6.5-9.8-15.6-9.8-27.3c0-12.1,3.5-21.7,10.5-28.8c7-7.1,15.7-10.6,25.9-10.6
			c10.6,0,18.9,3.2,24.7,9.5c5.8,6.3,8.7,14.9,8.7,25.7V78.1z M642.3,64.3c0-10.5-4.2-15.7-12.7-15.7c-3.6,0-6.7,1.5-9.4,4.5
			c-2.6,3-4.2,6.7-4.8,11.2H642.3z"/>
		<path class="st2" d="M748,108.2h-22.5v-10h-0.3c-5.1,7.9-12.7,11.8-22.6,11.8c-9.1,0-16.5-3.2-22-9.7c-5.6-6.4-8.3-15.4-8.3-27
			c0-12.1,3.1-21.7,9.2-29c6.1-7.3,14.2-10.9,24.1-10.9c9.4,0,16,3.4,19.7,10.1h0.3V0.2H748V108.2z M725.9,72.7v-5.5
			c0-4.8-1.4-8.7-4.1-11.8c-2.8-3.1-6.3-4.7-10.8-4.7c-5,0-8.9,2-11.7,5.9c-2.8,3.9-4.2,9.3-4.2,16.1c0,6.4,1.4,11.4,4.1,14.8
			c2.7,3.5,6.5,5.2,11.3,5.2c4.6,0,8.3-1.8,11.2-5.5C724.5,83.6,725.9,78.8,725.9,72.7z"/>
	</g>
	<g id="Layer_5_3_">
		<path class="st3" d="M35.4,68.3L35.4,68.3c-8,0-14.6-6.1-15.2-14.1l-0.4-6.4c-0.6-8.4,5.7-15.6,14.1-16.2c0.4,0,0.7,0,1.1,0h0.9
			c8.4,0,15.2,6.8,15.2,15.2c0,0.4,0,0.7,0,1.1l-0.4,6.4C49.9,62.2,43.3,68.3,35.4,68.3z"/>
		<path class="st2" d="M55.8,44.9L55.8,44.9c-1-10.3-9.6-18.2-20-18.2h-0.9c-11.1,0-20.1,9-20.1,20c0,0.5,0,0.9,0,1.4l0.4,6.4
			c0.7,10.5,9.5,18.7,20.1,18.7c0.8,0,1.7-0.1,2.5-0.2c3-0.4,5.9-1.4,8.4-3.1c3.5-2.3,6.2-5.5,7.7-9.4c0.8-1.9,1.2-4,1.4-6l0.4-6.4
			C55.9,47.1,55.9,46,55.8,44.9z M46,47.5l-0.4,6.4c-0.5,5.6-5.4,9.9-11,9.4c-5-0.4-9-4.4-9.4-9.4l-0.4-6.4
			c-0.4-5.6,3.9-10.5,9.5-10.9c0.3,0,0.5,0,0.8,0h0.9c5.7,0,10.2,4.6,10.2,10.3C46,47,46,47.2,46,47.5L46,47.5z"/>
		<path class="st3" d="M65.3,105H5.4c0,0-0.3-21.2,5.7-26.2c4.1-3.5,15.4-4.9,26.3-4.5c3.4,0.1,6.8,0.4,10.2,0.9
			c-0.8,1.5-1.4,3-1.8,4.7c-1.6,6.7-2.5,13.5-2.7,20.4h22.1C65.4,103,65.3,105,65.3,105z"/>
		<path class="st2" d="M70.3,100.1h-60c0.4-7.8,1.8-15.9,3.9-17.6c2.7-2.3,11.2-3.5,20-3.5h1.6c3.3,0,6.7,0.3,10,0.7
			c0.4-1.6,1-3.2,1.8-4.7c0.4-0.8,1-1.5,1.6-2.1c1.1-0.8,2.3-1.5,3.5-1.9c-2-0.4-4.2-0.8-6.6-1.1c-2.3-0.3-4.3-0.5-6.6-0.6
			c-5.2-0.3-10.4-0.2-15.6,0.4c-7,0.8-13,2.5-16.2,5.2c-7.3,6.1-7.6,24.6-7.5,30.1v4.9H70l0.2-4.7c0-1,0.1-2.4,0.1-4.2
			C70.3,100.9,70.3,100.5,70.3,100.1z"/>
		<path class="st3" d="M122.9,68.3L122.9,68.3c-8,0-14.6-6.2-15.1-14.1l-0.4-6.4c-0.6-8.4,5.7-15.6,14.1-16.2c0.4,0,0.7,0,1.1,0h0.9
			c8.4,0,15.2,6.8,15.2,15.2c0,0.4,0,0.7,0,1.1l-0.4,6.4C137.5,62.2,130.8,68.3,122.9,68.3z"/>
		<path class="st2" d="M138,33c-3.8-4.1-9.2-6.4-14.7-6.4h-0.9c-10.3,0-18.9,7.8-20,18c-0.1,1.1-0.1,2.3,0,3.4l0.4,6.4
			c0.4,6.2,3.7,11.8,8.8,15.2c2.7,1.8,5.9,3,9.1,3.3c0.7,0.1,1.4,0.1,2.1,0.1c10.5,0,19.3-8.2,20-18.7l0.4-6.4
			C143.7,42.5,141.7,37.1,138,33z M114.9,39.7c1.9-2.1,4.7-3.3,7.5-3.3h0.9c5.7,0,10.2,4.6,10.2,10.3c0,0.2,0,0.5,0,0.7l-0.4,6.4
			c-0.4,5.6-5.3,9.9-10.9,9.5c-5.1-0.4-9.2-4.4-9.5-9.5l-0.4-6.4C112,44.6,113,41.8,114.9,39.7z"/>
		<path class="st3" d="M152.8,105h-60c0,0,0-2,0.1-4.9h22.2c0.1-6.9-0.7-13.8-2.4-20.6c-0.4-1.6-1.1-3.2-2-4.7
			c3.5-0.5,7-0.7,10.5-0.7c10.5,0,21.4,1.6,25.9,4.6C153.9,83.4,152.8,105,152.8,105z"/>
		<path class="st2" d="M149.9,74.7c-3.3-2.2-9.2-3.8-16.1-4.7c-5-0.6-10-0.8-15-0.7c-2.4,0-4.8,0.2-7.1,0.5
			c-2.5,0.3-4.9,0.7-7.3,1.3c1.7,0.5,3.4,1.3,4.9,2.2c0.6,0.4,1.1,0.9,1.4,1.5c0.9,1.5,1.6,3.1,2,4.8c3-0.3,6-0.5,9-0.5h1
			c9,0,18,1.3,21.6,3.7c2,1.4,3.5,9,3.7,17.3H88c0,2.1,0,3.8,0,4.9v4.9h69.5l0.2-4.7c0-1,0.1-2.5,0.1-4.3
			C157.8,93.1,156.8,79.4,149.9,74.7z"/>
		<path class="st2" d="M98.4,8.2C93.6,3,86.8,0,79.7,0h-1.2C64.4,0,52.9,11.4,52.9,25.5c0,0.6,0,1.3,0.1,1.9l0.6,8.7
			c0,0.6,0.1,1.1,0.2,1.6c0.3,2.4,1,4.8,2,7.1l0,0c2.8,6.2,8,11,14.4,13.4c5.6,2.1,11.7,2.2,17.3,0.2c6.6-2.3,12-7.3,14.9-13.8
			c1-2.2,1.6-4.4,1.9-6.8c0.1-0.6,0.1-1.2,0.2-1.8l0.6-8.7C105.6,20.3,103.2,13.4,98.4,8.2z M95.4,26.7l-0.6,8.7
			c-0.6,8.7-8,15.3-16.7,14.7c-7.9-0.5-14.2-6.8-14.7-14.7l-0.6-8.7c-0.6-8.7,6-16.2,14.6-16.8c0.4,0,0.7,0,1.1,0h1.2
			c8.7,0,15.8,7.1,15.7,15.8C95.4,26,95.4,26.4,95.4,26.7L95.4,26.7z"/>
		<path class="st2" d="M122.8,79.1c-0.4-1.7-0.9-3.3-1.5-4.9l-0.4-1c-0.6-1.3-1.2-2.6-2-3.8c-0.5-0.7-1-1.4-1.6-2.1
			c-0.7-0.8-1.4-1.5-2.3-2c-1-0.6-2-1.2-3.1-1.6c-2.4-1-4.8-1.9-7.4-2.5c-5.5-1.3-11.2-2.2-16.9-2.5C81.7,58.1,76,58,70.2,58.3
			c-5.5,0.3-10.9,1-16.2,2.3c-2.5,0.6-4.9,1.4-7.2,2.5c-1.4,0.6-2.7,1.5-3.9,2.4c-0.6,0.5-1.1,1-1.6,1.6c-0.6,0.7-1.2,1.5-1.6,2.3
			c-0.7,1.2-1.3,2.4-1.8,3.7c-0.2,0.4-0.3,0.8-0.4,1.1c-0.6,1.6-1.1,3.2-1.5,4.9c-1.6,6.9-2.4,14-2.6,21c0,2.2,0,3.9,0,4.9l0,0v4.9
			h91.2l0.2-4.7c0-0.1,0-0.2,0-0.2c0-1,0.1-2.8,0.1-4.9C125,93,124.3,86,122.8,79.1z M43.2,100.1c0.1-6.9,1-13.7,2.7-20.4
			c0.4-1.6,1-3.2,1.8-4.7c0.4-0.8,1-1.5,1.6-2.1c1.1-0.8,2.3-1.5,3.5-1.9c5.6-2.1,15.2-3.2,25-3.2s20,1.1,26.5,3.2
			c1.7,0.5,3.4,1.3,4.9,2.2c0.6,0.4,1.1,0.9,1.4,1.5c0.9,1.5,1.6,3.1,2,4.7c1.7,6.7,2.5,13.6,2.4,20.6H43.2z"/>
	</g>
</g>
</svg>
